<svg width="24" height="23" viewBox="0 0 24 23" fill="none" xmlns="http://www.w3.org/2000/svg">
<path opacity="0.6" d="M10.9393 3.62134H3.93933C3.4089 3.62134 2.90019 3.83205 2.52512 4.20712C2.15004 4.5822 1.93933 5.0909 1.93933 5.62134V19.6213C1.93933 20.1518 2.15004 20.6605 2.52512 21.0356C2.90019 21.4106 3.4089 21.6213 3.93933 21.6213H17.9393C18.4698 21.6213 18.9785 21.4106 19.3535 21.0356C19.7286 20.6605 19.9393 20.1518 19.9393 19.6213V12.6213" stroke="#5D841E" stroke-width="2" stroke-linecap="round" stroke-linejoin="round"/>
<path d="M18.4393 2.12132C18.8372 1.7235 19.3767 1.5 19.9393 1.5C20.5019 1.5 21.0415 1.7235 21.4393 2.12132C21.8372 2.51915 22.0607 3.05871 22.0607 3.62132C22.0607 4.18393 21.8372 4.7235 21.4393 5.12132L11.9393 14.6213L7.93933 15.6213L8.93933 11.6213L18.4393 2.12132Z" stroke="#5D841E" stroke-width="2" stroke-linecap="round" stroke-linejoin="round"/>
</svg>
