<svg width="21" height="23" viewBox="0 0 21 23" fill="none" xmlns="http://www.w3.org/2000/svg">
<path opacity="0.6" d="M1.93933 5.5H3.93933H19.9393" stroke="#FC5050" stroke-width="2" stroke-linecap="round" stroke-linejoin="round"/>
<path fill-rule="evenodd" clip-rule="evenodd" d="M8.23222 2.79289C8.41976 2.60536 8.67411 2.5 8.93933 2.5H12.9393C13.2045 2.5 13.4589 2.60536 13.6464 2.79289C13.834 2.98043 13.9393 3.23478 13.9393 3.5V4.5H15.9393V3.5C15.9393 2.70435 15.6233 1.94129 15.0607 1.37868C14.498 0.81607 13.735 0.5 12.9393 0.5H8.93933C8.14368 0.5 7.38062 0.81607 6.81801 1.37868C6.2554 1.94129 5.93933 2.70435 5.93933 3.5V4.5H7.93933V3.5C7.93933 3.23478 8.04469 2.98043 8.23222 2.79289ZM18.9393 6.5H16.9393V19.5C16.9393 19.7652 16.834 20.0196 16.6464 20.2071C16.4589 20.3946 16.2045 20.5 15.9393 20.5H5.93933C5.67411 20.5 5.41976 20.3946 5.23222 20.2071C5.04469 20.0196 4.93933 19.7652 4.93933 19.5V6.5H3.93933H2.93933V19.5C2.93933 20.2957 3.2554 21.0587 3.81801 21.6213C4.38062 22.1839 5.14368 22.5 5.93933 22.5H15.9393C16.735 22.5 17.498 22.1839 18.0607 21.6213C18.6233 21.0587 18.9393 20.2957 18.9393 19.5V6.5Z" fill="#FC5050"/>
</svg>
